# xmcd CD database file
# Copyright (C) 1997 Ti Kan
# 
# Track frame offsets:
#     150
#     14190
#     29588
#     43900
#     57605
#     70608
#     83973
#     97718
#     112410
#     126170
#     139190
#     152608
#     167075
#     179870
#     193998
#     207175
#     220158
#     232978
#     245185
#     258413
#     271015
#     282865
#     294983
#     307935
#     321000
#     333630
# 
# Disc length: 4610 seconds
# 
# Revision: 2
# Processed by: cddbd v1.4PL0 Copyright (c) Steve Scherf et al.
# Submitted via: Gronk 1.4
# 
DISCID=9612001a
DTITLE=Merline Johnson - The Yas Yas Girl - Complete Recorded Works In Chro
DTITLE=nological Order VOL.1 (4 May 1937 to 7 April 1938)
DYEAR=1900
DGENRE=blues
TTITLE0=New Muddy Water Blues
TTITLE1=He Roars Like A Lion
TTITLE2=I'm Leavin' You
TTITLE3=My Baby Left Me
TTITLE4=Pallet On The Floor
TTITLE5=Mean Mistreatin' Daddy
TTITLE6=Sold It To The Devil
TTITLE7=Grandpa And Grandma
TTITLE8=I'd Rather Drink Muddy Water, No. 2
TTITLE9=Blues Everywhere
TTITLE10=Working On The Project
TTITLE11=I Drink Good Whiskey
TTITLE12=Patrol Wagon Blues
TTITLE13=Got a Man In The 'Bamma Mines
TTITLE14=Jackass For Sale
TTITLE15=You Got To Pay
TTITLE16=My Independent Man
TTITLE17=He May Be Your Man
TTITLE18=New Drinking My Blues Away
TTITLE19=Crime Don't Pay
TTITLE20=Please Come Back To Me (take 5)
TTITLE21=Love Shows Weakness (take 4)
TTITLE22=About My Time To Check
TTITLE23=Squeeze Me Tight
TTITLE24=Jelly Bean Blues
TTITLE25=My Man Is Gone
EXTD=
EXTT0=
EXTT1=
EXTT2=
EXTT3=
EXTT4=
EXTT5=
EXTT6=
EXTT7=
EXTT8=
EXTT9=
EXTT10=
EXTT11=
EXTT12=
EXTT13=
EXTT14=
EXTT15=
EXTT16=
EXTT17=
EXTT18=
EXTT19=
EXTT20=
EXTT21=
EXTT22=
EXTT23=
EXTT24=
EXTT25=
PLAYORDER=
